/* XPM */
static const char *Text_GameFrm_frmNewForm_XPM[]={
/* Text_GameFrm_frmNewForm */
"32 32 36 1",
"      c None",
"0     c #828282",
"1     c #A2A2A2",
"2     c #A4A4A4",
"3     c #CACACA",
"4     c #DBDBDB",
"5     c #D2D2D2",
"6     c #E0C3C3",
"7     c #DBDBD9",
"8     c #E2DCBC",
"9     c #DEDBCC",
"a     c #D2D8D1",
"b     c #B3D1B1",
"c     c #D7D7D7",
"d     c #ED9292",
"e     c #FF4D4D",
"f     c #F5DF71",
"g     c #FFE14D",
"h     c #FEE050",
"i     c #E5DCB2",
"j     c #C7D6C6",
"k     c #3FB737",
"l     c #2DB324",
"m     c #FD5252",
"n     c #F4DF75",
"o     c #8AC886",
"p     c #F86565",
"q     c #EFDE88",
"r     c #A1CD9E",
"s     c #E0C6C6",
"t     c #F27C7C",
"u     c #DCDBD4",
"v     c #8DC989",
"w     c #5CBD55",
"x     c #8E8E8E",
"y     c #414141",
"                                ",
"                                ",
"                                ",
"                                ",
"                                ",
"                                ",
"                                ",
"                                ",
"                                ",
"                                ",
"                                ",
"                                ",
"                                ",
"                                ",
"                                ",
"                                ",
"                                ",
"                                ",
"                                ",
"                                ",
"             0122222222222222222",
"            34444444444444444444",
"           5444466444789444aba44",
"           c444deed47fghi4jklkj4",
"           4444meem48gggn4olllo4",
"           4444peep49hggq4rlllr4",
"           4444stts44inqu44vwv44",
"           444444444444444444444",
"           xxxxxxxxxxxxxxxxxxxxx",
"           yyyyyyyyyyyyyyyyyyyyy",
"           yyyyyyyyyyyyyyyyyyyyy",
"           yyyyyyyyyyyyyyyyyyyyy"};

